HIERARCHY
ROOT root
{
	OFFSET 0.000000 0.000000 0.000000
	CHANNELS 6 Xposition Yposition Zposition Zrotation Yrotation Xrotation
	JOINT lhip
	{
		OFFSET 0.058581 -0.082280 -0.017664
		CHANNELS 3 Zrotation Yrotation Xrotation
		JOINT lknee
		{
			OFFSET 0.043451 -0.386469 0.008037
			CHANNELS 3 Zrotation Yrotation Xrotation
			JOINT lankle
			{
				OFFSET -0.014790 -0.426874 -0.037428
				CHANNELS 3 Zrotation Yrotation Xrotation
				JOINT ltoe
				{
					OFFSET 0.041054 -0.060286 0.122042
					CHANNELS 3 Zrotation Yrotation Xrotation
					End Site
					{
						OFFSET 0.000000 0.000000 0.000000
					}
				}
			}
		}
	}
	JOINT rhip
	{
		OFFSET -0.060310 -0.090513 -0.013543
		CHANNELS 3 Zrotation Yrotation Xrotation
		JOINT rknee
		{
			OFFSET -0.043257 -0.383688 -0.004843
			CHANNELS 3 Zrotation Yrotation Xrotation
			JOINT rankle
			{
				OFFSET 0.019056 -0.420046 -0.034562
				CHANNELS 3 Zrotation Yrotation Xrotation
				JOINT rtoe
				{
					OFFSET -0.034840 -0.062106 0.130323
					CHANNELS 3 Zrotation Yrotation Xrotation
					End Site
					{
						OFFSET 0.000000 0.000000 0.000000
					}
				}
			}
		}
	}
	JOINT lowerback
	{
		OFFSET 0.004439 0.124404 -0.038385
		CHANNELS 3 Zrotation Yrotation Xrotation
		JOINT upperback
		{
			OFFSET 0.004488 0.137956 0.026820
			CHANNELS 3 Zrotation Yrotation Xrotation
			JOINT chest
			{
				OFFSET -0.002265 0.056032 0.002855
				CHANNELS 3 Zrotation Yrotation Xrotation
				JOINT lowerneck
				{
					OFFSET -0.013390 0.211636 -0.033468
					CHANNELS 3 Zrotation Yrotation Xrotation
					JOINT upperneck
					{
						OFFSET 0.010113 0.088937 0.050410
						CHANNELS 3 Zrotation Yrotation Xrotation
						End Site
						{
							OFFSET 0.000000 0.000000 0.000000
						}
					}
				}
				JOINT lclavicle
				{
					OFFSET 0.071702 0.114000 -0.018898
					CHANNELS 3 Zrotation Yrotation Xrotation
					JOINT lshoulder
					{
						OFFSET 0.122921 0.045205 -0.019046
						CHANNELS 3 Zrotation Yrotation Xrotation
						JOINT lelbow
						{
							OFFSET 0.255332 -0.015649 -0.022946
							CHANNELS 3 Zrotation Yrotation Xrotation
							JOINT lwrist
							{
								OFFSET 0.265709 0.012698 -0.007375
								CHANNELS 3 Zrotation Yrotation Xrotation
								End Site
								{
									OFFSET 0.000000 0.000000 0.000000
								}
							}
						}
					}
				}
				JOINT rclavicle
				{
					OFFSET -0.082954 0.112472 -0.023707
					CHANNELS 3 Zrotation Yrotation Xrotation
					JOINT rshoulder
					{
						OFFSET -0.113228 0.046853 -0.008472
						CHANNELS 3 Zrotation Yrotation Xrotation
						JOINT relbow
						{
							OFFSET -0.260127 -0.014369 -0.031269
							CHANNELS 3 Zrotation Yrotation Xrotation
							JOINT rwrist
							{
								OFFSET -0.269108 0.006794 -0.006027
								CHANNELS 3 Zrotation Yrotation Xrotation
								End Site
								{
									OFFSET 0.000000 0.000000 0.000000
								}
							}
						}
					}
				}
			}
		}
	}
}
MOTION
Frames: 8
Frame Time: 0.033333
0.001522 0.807330 0.986769 95.208179 -5.025866 82.383037 -3.784592 -3.044039 1.203086 -2.930530 -1.347071 12.913138 5.249806 11.691120 -14.867825 0.000000 -0.000000 0.000000 -10.097437 -7.410939 -0.970356 -1.479253 -9.491201 24.823509 1.777777 -8.244020 -17.999251 0.000000 -0.000000 0.000000 2.788183 6.790838 -1.740503 2.438924 1.917354 3.733819 1.367462 7.566834 1.828789 6.235452 17.453780 8.584578 4.561394 19.166565 15.202230 -9.607640 -9.559227 -13.498230 -35.773921 -27.907940 -5.242205 46.029040 -37.485847 -72.171814 15.417997 10.555313 -42.365929 16.135380 22.813023 -0.576636 75.464999 31.165174 47.889838 168.608552 65.366541 -171.014564 -0.718294 12.829672 -10.283883 
0.001886 0.808919 0.987204 95.937251 -4.942222 82.243918 -3.833325 -2.854067 1.601459 -2.919982 -2.272148 12.610843 5.386464 11.637701 -14.998002 0.000000 -0.000000 0.000000 -10.144506 -7.662211 -0.392001 -1.499798 -9.878598 24.298065 1.924716 -8.191092 -18.221421 0.000000 -0.000000 0.000000 2.851847 6.940622 -1.044631 2.538471 1.828276 2.818283 1.691833 7.859008 1.435552 6.749883 17.648865 8.729186 5.198720 19.226747 13.746156 -8.255533 -11.304604 -14.271544 -31.745755 -29.448804 -7.837612 45.941054 -36.570550 -74.019437 15.637895 10.477910 -42.270784 16.288213 24.081108 -0.216861 74.854235 32.084704 47.795635 166.991572 65.984486 -172.473934 -4.369305 12.196042 -7.999363 
0.001552 0.810542 0.987099 96.475827 -5.016800 82.519798 -3.988754 -3.504528 1.599766 -2.880424 -2.103124 12.105296 4.993761 11.385576 -14.913851 0.000000 -0.000000 0.000000 -10.320750 -7.873802 -0.564958 -1.609823 -10.234731 24.245880 2.017771 -8.058979 -17.829525 0.000000 -0.000000 0.000000 2.576301 7.616139 -1.756037 2.910998 1.672544 3.185720 2.023448 8.251970 1.253867 7.225668 18.431405 8.301147 5.315952 18.609568 12.340246 -6.834574 -12.855540 -15.202271 -28.117508 -31.425147 -10.007464 44.605120 -35.206768 -76.033859 16.319148 9.868143 -40.424674 15.938982 25.074641 -0.049621 74.947664 32.811507 47.938930 167.560709 67.252886 -170.884866 -7.157887 12.081046 -5.047964 
0.001748 0.811959 0.987316 97.175012 -4.998706 82.675862 -4.151914 -3.983482 1.400719 -2.812358 -2.294153 12.124724 5.090696 11.557522 -14.711932 0.000000 -0.000000 0.000000 -10.341903 -7.939135 -0.434886 -1.554303 -10.433372 23.736476 2.167843 -8.495081 -17.573428 0.000000 -0.000000 0.000000 2.635268 7.935659 -1.671756 3.050453 1.690744 2.512671 2.245250 8.595642 1.267850 7.541586 18.880605 7.263720 5.583233 18.510661 12.119800 -5.548687 -14.388831 -16.312779 -24.877196 -32.865402 -11.826698 43.505982 -33.765711 -77.744679 18.647359 9.944090 -39.441813 16.039062 26.397006 -0.085050 74.509853 33.787294 48.386702 167.712131 68.806775 -169.926294 -11.957536 12.595040 0.466549 
0.002372 0.813596 0.987028 97.916441 -4.986729 82.757588 -4.215227 -4.137067 1.388613 -2.813254 -2.609014 12.039078 5.094390 11.196054 -14.911373 0.000000 -0.000000 0.000000 -10.418603 -8.170160 -0.162800 -1.616805 -10.765442 23.434159 2.429655 -8.632003 -17.535341 0.000000 -0.000000 0.000000 2.451402 8.423347 -1.963876 3.225962 1.571615 2.512945 2.431056 8.958757 0.834506 7.651100 18.944992 7.014069 6.279355 17.677092 10.176568 -3.829733 -16.214918 -16.948819 -22.316451 -33.917626 -13.613695 42.318348 -32.216972 -77.886467 18.739407 9.306275 -39.106646 15.923219 27.966073 0.164966 73.594000 35.498802 47.858659 167.083566 70.029369 -169.499828 -13.627130 13.339253 4.056276 
0.002225 0.815779 0.986644 98.644658 -5.153620 82.791985 -4.585425 -4.559213 1.392875 -2.678879 -2.667857 11.830588 4.751282 11.152740 -14.583442 0.000000 -0.000000 0.000000 -10.718390 -8.252349 -0.009549 -1.680411 -11.119483 23.238691 2.633043 -8.810677 -17.399711 0.000000 -0.000000 0.000000 2.175533 9.055830 -2.495505 3.377608 1.697485 2.732764 2.846666 9.154311 1.029987 8.115666 19.295398 5.742477 6.138566 16.384540 9.765557 -2.348523 -17.741382 -17.640071 -20.157966 -35.317659 -14.863697 40.916416 -30.415387 -79.413162 19.346870 8.631421 -37.586351 15.272984 29.344076 -0.258392 72.689961 37.574141 47.772306 168.908926 72.045358 -167.353366 -16.425730 15.235763 8.040494 
0.002817 0.817787 0.986151 99.461501 -5.147430 82.787364 -4.740629 -5.008401 1.402109 -2.729568 -3.144087 11.806898 5.230154 11.360826 -14.696009 0.000000 -0.000000 0.000000 -10.892820 -8.784786 0.294818 -1.568646 -11.052121 22.923011 2.605819 -9.162419 -17.225125 0.000000 -0.000000 0.000000 2.201395 9.550679 -2.901658 3.477981 1.508445 3.096639 2.905393 9.499524 0.622634 7.981682 19.462748 5.152108 6.506717 15.477749 8.092633 -0.878975 -19.251624 -17.836829 -17.885702 -35.810171 -16.285924 39.122713 -29.528426 -78.613453 20.861712 8.715928 -37.453898 14.526793 31.164128 -0.193161 71.300304 40.488029 46.911010 169.188871 74.256445 -166.078921 -21.197244 15.993631 11.552870 
0.003600 0.819032 0.986102 100.432980 -5.144235 82.795798 -4.905259 -5.177203 1.277156 -2.717471 -3.856079 11.975363 4.767546 11.283606 -14.699979 0.000000 -0.000000 0.000000 -10.977086 -9.248814 0.582545 -1.647701 -11.215623 22.736323 2.739941 -9.410953 -17.116128 0.000000 -0.000000 0.000000 2.297768 9.975385 -2.455929 3.244008 1.556956 1.911376 2.921289 9.760170 0.679909 8.335168 19.122889 4.001416 6.948384 14.406516 7.906922 0.588693 -20.539078 -19.253226 -16.837678 -36.456740 -16.746057 37.060650 -28.979441 -77.055014 21.481152 9.086819 -36.954584 13.334821 32.567440 -1.254559 70.924890 43.057673 46.513935 171.286514 77.214652 -163.313885 -24.064110 16.787901 14.628667 
